<svg width="27" height="27" viewBox="0 0 27 27" fill="none" xmlns="http://www.w3.org/2000/svg">
<circle cx="3.40426" cy="3.40426" r="3.40426" transform="matrix(-1 0 0 1 18.617 4.99994)" stroke="white" stroke-width="1.5"/>
<path d="M9.25532 16.8594C9.25532 16.1271 9.71562 15.474 10.4052 15.2277V15.2277C13.5141 14.1174 16.9115 14.1174 20.0203 15.2277V15.2277C20.7099 15.474 21.1702 16.1271 21.1702 16.8594V17.9789C21.1702 18.9895 20.2751 19.7658 19.2747 19.6229L18.9412 19.5753C16.4681 19.222 13.9574 19.222 11.4844 19.5753L11.1508 19.6229C10.1504 19.7658 9.25532 18.9895 9.25532 17.9789V16.8594Z" stroke="white" stroke-width="1.5"/>
<path d="M20.3192 11.9027C21.7964 11.9027 22.9939 10.7051 22.9939 9.2279C22.9939 7.75066 21.7964 6.55313 20.3192 6.55313" stroke="white" stroke-width="1.5" stroke-linecap="round"/>
<path d="M23.2486 18.005L23.5107 18.0424C24.2967 18.1547 25 17.5448 25 16.7507V15.8711C25 15.2958 24.6383 14.7825 24.0965 14.589C23.5561 14.396 23.0045 14.2457 22.4468 14.1381" stroke="white" stroke-width="1.5" stroke-linecap="round"/>
<g filter="url(#filter0_d_3_3)">
<path d="M9.68086 11.9027C8.20362 11.9027 7.00608 10.7051 7.00608 9.2279C7.00608 7.75066 8.20362 6.55313 9.68086 6.55313" stroke="white" stroke-width="1.5" stroke-linecap="round"/>
<path d="M6.7514 18.005L6.48932 18.0424C5.70327 18.1547 5 17.5448 5 16.7507V15.8711C5 15.2958 5.36167 14.7825 5.90347 14.589C6.44392 14.396 6.99546 14.2457 7.55319 14.1381" stroke="white" stroke-width="1.5" stroke-linecap="round"/>
</g>
<defs>
<filter id="filter0_d_3_3" x="0.25" y="5.80313" width="14.1809" height="21.0028" filterUnits="userSpaceOnUse" color-interpolation-filters="sRGB">
<feFlood flood-opacity="0" result="BackgroundImageFix"/>
<feColorMatrix in="SourceAlpha" type="matrix" values="0 0 0 0 0 0 0 0 0 0 0 0 0 0 0 0 0 0 127 0" result="hardAlpha"/>
<feOffset dy="4"/>
<feGaussianBlur stdDeviation="2"/>
<feComposite in2="hardAlpha" operator="out"/>
<feColorMatrix type="matrix" values="0 0 0 0 0 0 0 0 0 0 0 0 0 0 0 0 0 0 0.25 0"/>
<feBlend mode="normal" in2="BackgroundImageFix" result="effect1_dropShadow_3_3"/>
<feBlend mode="normal" in="SourceGraphic" in2="effect1_dropShadow_3_3" result="shape"/>
</filter>
</defs>
</svg>
