<svg width="124" height="124" viewBox="0 0 124 124" fill="none" xmlns="http://www.w3.org/2000/svg">
<path d="M53.6247 71.7002L53.1562 71.1146L53.1562 71.1146L53.6247 71.7002ZM56.4522 69.4383L55.9837 68.8526L56.4522 69.4383ZM52.75 58C52.75 55.6528 54.6528 53.75 57 53.75V52.25C53.8244 52.25 51.25 54.8244 51.25 58H52.75ZM52.75 63.5V58H51.25V63.5H52.75ZM52.75 64V63.5H51.25V64H52.75ZM52.75 70.9194V64H51.25V70.9194H52.75ZM53.1562 71.1146C52.9925 71.2455 52.75 71.129 52.75 70.9194H51.25C51.25 72.3868 52.9474 73.2026 54.0932 72.2859L53.1562 71.1146ZM55.9837 68.8526L53.1562 71.1146L54.0932 72.2859L56.9207 70.0239L55.9837 68.8526ZM67 68.25H57.7016V69.75H67V68.25ZM71.25 64C71.25 66.3472 69.3472 68.25 67 68.25V69.75C70.1756 69.75 72.75 67.1756 72.75 64H71.25ZM71.25 58V64H72.75V58H71.25ZM67 53.75C69.3472 53.75 71.25 55.6528 71.25 58H72.75C72.75 54.8244 70.1756 52.25 67 52.25V53.75ZM57 53.75H67V52.25H57V53.75ZM56.9207 70.0239C57.1423 69.8466 57.4177 69.75 57.7016 69.75V68.25C57.0771 68.25 56.4713 68.4625 55.9837 68.8526L56.9207 70.0239Z" fill="white"/>
<circle cx="57.05" cy="61.0498" r="1.25" fill="white"/>
<circle cx="62.05" cy="61.0498" r="1.25" fill="white"/>
<circle cx="67.05" cy="61.0498" r="1.25" fill="white"/>
<path d="M3.6247 21.7002L3.15618 21.1146L3.15618 21.1146L3.6247 21.7002ZM6.45218 19.4383L5.98365 18.8526L6.45218 19.4383ZM2.75 8C2.75 5.65279 4.65279 3.75 7 3.75V2.25C3.82437 2.25 1.25 4.82436 1.25 8H2.75ZM2.75 13.5V8H1.25V13.5H2.75ZM2.75 14V13.5H1.25V14H2.75ZM2.75 20.9194V14H1.25V20.9194H2.75ZM3.15618 21.1146C2.99249 21.2455 2.75 21.129 2.75 20.9194H1.25C1.25 22.3868 2.94738 23.2026 4.09322 22.2859L3.15618 21.1146ZM5.98365 18.8526L3.15618 21.1146L4.09322 22.2859L6.9207 20.0239L5.98365 18.8526ZM17 18.25H7.70157V19.75H17V18.25ZM21.25 14C21.25 16.3472 19.3472 18.25 17 18.25V19.75C20.1756 19.75 22.75 17.1756 22.75 14H21.25ZM21.25 8V14H22.75V8H21.25ZM17 3.75C19.3472 3.75 21.25 5.65279 21.25 8H22.75C22.75 4.82436 20.1756 2.25 17 2.25V3.75ZM7 3.75H17V2.25H7V3.75ZM6.9207 20.0239C7.14234 19.8466 7.41773 19.75 7.70157 19.75V18.25C7.07712 18.25 6.47127 18.4625 5.98365 18.8526L6.9207 20.0239Z" fill="white"/>
<circle cx="7.04999" cy="11.0498" r="1.25" fill="white"/>
<circle cx="12.05" cy="11.0498" r="1.25" fill="white"/>
<circle cx="17.05" cy="11.0498" r="1.25" fill="white"/>
<path d="M3.6247 121.7L3.15618 121.115L3.15618 121.115L3.6247 121.7ZM6.45218 119.438L5.98365 118.853L6.45218 119.438ZM2.75 108C2.75 105.653 4.65279 103.75 7 103.75V102.25C3.82437 102.25 1.25 104.824 1.25 108H2.75ZM2.75 113.5V108H1.25V113.5H2.75ZM2.75 114V113.5H1.25V114H2.75ZM2.75 120.919V114H1.25V120.919H2.75ZM3.15618 121.115C2.99249 121.246 2.75 121.129 2.75 120.919H1.25C1.25 122.387 2.94738 123.203 4.09322 122.286L3.15618 121.115ZM5.98365 118.853L3.15618 121.115L4.09322 122.286L6.9207 120.024L5.98365 118.853ZM17 118.25H7.70157V119.75H17V118.25ZM21.25 114C21.25 116.347 19.3472 118.25 17 118.25V119.75C20.1756 119.75 22.75 117.176 22.75 114H21.25ZM21.25 108V114H22.75V108H21.25ZM17 103.75C19.3472 103.75 21.25 105.653 21.25 108H22.75C22.75 104.824 20.1756 102.25 17 102.25V103.75ZM7 103.75H17V102.25H7V103.75ZM6.9207 120.024C7.14234 119.847 7.41773 119.75 7.70157 119.75V118.25C7.07712 118.25 6.47127 118.463 5.98365 118.853L6.9207 120.024Z" fill="white"/>
<circle cx="7.04999" cy="111.05" r="1.25" fill="white"/>
<circle cx="12.05" cy="111.05" r="1.25" fill="white"/>
<circle cx="17.05" cy="111.05" r="1.25" fill="white"/>
<path d="M103.625 21.7002L103.156 21.1146L103.156 21.1146L103.625 21.7002ZM106.452 19.4383L105.984 18.8526L106.452 19.4383ZM102.75 8C102.75 5.65279 104.653 3.75 107 3.75V2.25C103.824 2.25 101.25 4.82436 101.25 8H102.75ZM102.75 13.5V8H101.25V13.5H102.75ZM102.75 14V13.5H101.25V14H102.75ZM102.75 20.9194V14H101.25V20.9194H102.75ZM103.156 21.1146C102.992 21.2455 102.75 21.129 102.75 20.9194H101.25C101.25 22.3868 102.947 23.2026 104.093 22.2859L103.156 21.1146ZM105.984 18.8526L103.156 21.1146L104.093 22.2859L106.921 20.0239L105.984 18.8526ZM117 18.25H107.702V19.75H117V18.25ZM121.25 14C121.25 16.3472 119.347 18.25 117 18.25V19.75C120.176 19.75 122.75 17.1756 122.75 14H121.25ZM121.25 8V14H122.75V8H121.25ZM117 3.75C119.347 3.75 121.25 5.65279 121.25 8H122.75C122.75 4.82436 120.176 2.25 117 2.25V3.75ZM107 3.75H117V2.25H107V3.75ZM106.921 20.0239C107.142 19.8466 107.418 19.75 107.702 19.75V18.25C107.077 18.25 106.471 18.4625 105.984 18.8526L106.921 20.0239Z" fill="white"/>
<circle cx="107.05" cy="11.0498" r="1.25" fill="white"/>
<circle cx="112.05" cy="11.0498" r="1.25" fill="white"/>
<circle cx="117.05" cy="11.0498" r="1.25" fill="white"/>
<path d="M103.625 121.7L103.156 121.115L103.156 121.115L103.625 121.7ZM106.452 119.438L105.984 118.853L106.452 119.438ZM102.75 108C102.75 105.653 104.653 103.75 107 103.75V102.25C103.824 102.25 101.25 104.824 101.25 108H102.75ZM102.75 113.5V108H101.25V113.5H102.75ZM102.75 114V113.5H101.25V114H102.75ZM102.75 120.919V114H101.25V120.919H102.75ZM103.156 121.115C102.992 121.246 102.75 121.129 102.75 120.919H101.25C101.25 122.387 102.947 123.203 104.093 122.286L103.156 121.115ZM105.984 118.853L103.156 121.115L104.093 122.286L106.921 120.024L105.984 118.853ZM117 118.25H107.702V119.75H117V118.25ZM121.25 114C121.25 116.347 119.347 118.25 117 118.25V119.75C120.176 119.75 122.75 117.176 122.75 114H121.25ZM121.25 108V114H122.75V108H121.25ZM117 103.75C119.347 103.75 121.25 105.653 121.25 108H122.75C122.75 104.824 120.176 102.25 117 102.25V103.75ZM107 103.75H117V102.25H107V103.75ZM106.921 120.024C107.142 119.847 107.418 119.75 107.702 119.75V118.25C107.077 118.25 106.471 118.463 105.984 118.853L106.921 120.024Z" fill="white"/>
<circle cx="107.05" cy="111.05" r="1.25" fill="white"/>
<circle cx="112.05" cy="111.05" r="1.25" fill="white"/>
<circle cx="117.05" cy="111.05" r="1.25" fill="white"/>
<line x1="26.3536" y1="26.6464" x2="43.3536" y2="43.6464" stroke="white"/>
<line x1="79.6464" y1="43.6464" x2="96.6464" y2="26.6464" stroke="white"/>
<line x1="26.6464" y1="96.6464" x2="43.6464" y2="79.6464" stroke="white"/>
<line x1="80.3536" y1="79.6464" x2="97.3536" y2="96.6464" stroke="white"/>
</svg>
